<svg xmlns="http://www.w3.org/2000/svg" xmlns:xlink="http://www.w3.org/1999/xlink" version="1.1" x="0px" y="0px" viewBox="0 0 100 125" enable-background="new 0 0 100 100" xml:space="preserve"><path d="M3.232,41.733c0.28-0.16,0.082-0.635,0.788-0.516c0.049,0.146-0.103,0.161-0.263,0.171c0.182,0.23,0.701-0.084,1.313,0.173  c-0.147,0.358-0.409,0.365-0.788,0.172c-0.048,0.146,0.103,0.162,0.263,0.172C4.094,42.513,4.116,41.408,3.232,41.733z   M6.648,44.145c-0.458,0.013-0.818-0.039-1.052-0.172c0.031,0.612-1.669,0.641-0.525,0.172c-0.579-0.396-1.049,0.043-1.051,0.517  C5.131,44.729,6.047,44.932,6.648,44.145z M27.93,46.038c0.909-0.563,1.609,1.345,2.102,0C29.465,46.137,28.5,45.284,27.93,46.038z   M51.313,47.072c0.439,0,0.878,0,1.315,0c0.181-0.577-0.441-0.63-1.052-0.689C51.597,46.684,51.518,46.919,51.313,47.072z   M80.215,47.761c-0.743,0.143-0.681-0.242-1.313-0.172C78.394,48.653,79.567,48.13,80.215,47.761z M15.844,49.483  c0.882-0.054,2.277,0.229,2.102-0.518C17.049,49.248,16.196,48.404,15.844,49.483z M8.75,49.139c-0.87-0.748-2.621-0.25-3.941-0.345  c-0.519,0.647,1.347,0.583,0.526,0.862c0-0.096-0.213-0.196-0.263,0c1.005,0.346,1.755-0.15,2.628,0.345  c1.031-0.137,0.771-0.314,1.051-0.69c0.576,0.196,1.073,0.444,2.102,0.346C10.328,49.232,8.893,48.305,8.75,49.139z M61.561,46.211  c0-0.115,0-0.229,0-0.344c-0.237-0.504-0.968-0.05-1.051-0.345c-0.012-0.441,0.196-0.21,0.526-0.172  c-0.293-0.556-1.243-0.679-1.578-1.206c0.34,0.237,1.143,0.17,1.839,0.172c-0.486,0.332-0.48,0.137-0.261,0.689  c0.546-0.102,0.849-0.362,1.313-0.518c0.077,0.22-0.241,0.274,0.263,0.862c1.089-0.047,1.024,0.226,1.839,0  c-0.258,0.553-0.747,0.419,0.263,0.688C64.051,46.878,62.165,45.882,61.561,46.211z M62.086,46.038c0.814-0.461,1.021,0.467,1.577,0  c-0.307-0.028-0.286-0.271-0.264-0.516c-0.35,0-0.701,0-1.051,0c-0.06-0.134-0.007-0.34-0.263-0.345  C62.242,45.728,61.593,45.711,62.086,46.038z M59.195,44.833c0.507,0.608-0.085,0.943-0.524,1.378  c0.803,0.125,0.772-0.297,1.576-0.173C59.563,45.605,59.939,44.859,59.195,44.833z M54.467,43.973  c-0.737,0.073,0.659-0.643-0.263-0.689c-0.207,0.132-0.919,0.124-1.313,0C52.776,43.828,54.421,44.102,54.467,43.973z   M56.043,44.316c0.67-0.02,1.353-0.032,1.313-0.516c-0.516-0.053-0.521,0.232-0.788,0.344c-0.318-0.48-0.942-0.76-1.84-0.861  C54.662,43.959,55.992,43.719,56.043,44.316z M21.361,44.833c0.362-0.007,0.577,0.081,0.788,0.173  c0.141-0.29,0.461-0.88-0.262-0.518c-0.015-0.22-0.337-0.238-0.263-0.516c1.172,0.046,1.832,0.207,1.051,1.033  c1.21,0.161,0.504-0.933,1.051-1.205c-0.583-0.138-1.067-0.166-2.364-0.173c-0.059,0.133-0.007,0.339-0.263,0.345  C20.969,44.513,22.004,44.427,21.361,44.833z M52.891,45.351c-0.517,0.051-0.521-0.232-0.789-0.345  c-0.011,0.236,0.125,0.378,0.264,0.517c-0.204,0.038-0.519,0.005-0.526,0.172C52.229,45.966,53.013,45.887,52.891,45.351z   M72.332,47.072c0.96,0.111,1.4-0.116,1.841-0.344c0.011,0.236-0.124,0.377-0.264,0.516c0.79,0.174,0.465-0.383,0.525-0.688  C73.38,46.495,72.512,46.559,72.332,47.072z M96.239,66.831c-0.271-0.49,0.306-0.513-0.054-1.101  c-0.462,0.311-0.847-0.565-1.558-0.491c0.248,0.521,0.507,0.298,1.015,0.948c-0.641,0.707-0.009,0.444-0.086,1  c-0.906-0.005-0.117-1.346-0.853-1.467c-0.368,0.9,0.402,1.486-0.272,2.141c-0.387-0.804-1.392,0.318-2.142-0.274  c-1.92,1.907-4.871-0.36-7.353,1.057c-2.138-1.029-6.086,0.734-7.904-0.831c-0.438,0.089-0.885,0.122-1.381-0.148  c0.009,0.204,0.102,0.395,0.217,0.581c-1.692,0.356-1.74,0.354-3.886,0.376c0.306-0.401,0.752,0.08,1.024-0.533  c-0.47,0.172-1.672-0.212-1.646,0.509c-0.304,0.151-0.658-0.007-1.039-0.326c0.152-0.335,0.364-0.3,0.544-0.457  c-1.384,0.547-3.259-0.254-3.472-1.663c-1.052-0.181,0.14,0.807-0.289,1.279c-0.141-0.101-0.279-0.202-0.419-0.303  c0.464,0.705-0.156,0.698-0.947,1.015c-0.163-0.211,0.185-0.139,0.303-0.418c-0.237,0.055-0.546-0.33-0.722,0.115  c0.043-0.431,0.191-0.335,0.227-0.899c-0.295-0.301-0.488,0.035-0.799-0.365c-0.145,0.269,0.01,0.491,0.356,0.683  c-0.153,0.335-0.363,0.3-0.544,0.457c-0.09-0.273-0.01-0.574-0.015-0.861c-0.503,0.056-0.681,0.475-1.366,0.712  c-0.654-0.749-1.043,0.159-1.697-0.591c-0.074-0.548,0.147-0.462,0.226-0.899c-0.867-0.035-1.636-0.373-2.256-0.995  c-0.589,0.382,0.604,0.479,0.015,0.86c0.397,0.17,0.688-0.324,1.14,0.188c-0.135,0.186-0.269,0.371-0.403,0.558  c-0.179-0.177,0.253-0.451,0.023-0.62c-0.346,0.234-0.438,0.465-1.102,0.053c-0.238,0.559-0.56,0.61-0.961,0.153  c0.098,0.604-0.558,0.432-0.847,0.876c-0.081-0.417-0.788-0.395-1.218-0.667c0.167-0.243,0.365-0.287,0.583-0.217  c-0.034-0.896-0.836-0.171-0.775-0.987c-0.204,0.009-0.396,0.103-0.581,0.218c-0.275-0.476-0.859-0.898-1.396-1.011  c0.105,0.437,0.761,0.783,1.054,1.188c-0.25,0.229-0.647-0.451-0.821,0.255c0.149,0.219,0.075,0.263,0.336,0.652  c-0.204-0.044-1.197-0.115-1.578-0.699c-0.366,0.305,0.094,0.478,0.116,0.72c-0.06,0.139-0.149,0.093-0.24,0.039  c-0.1-0.111-0.171-0.041-0.241,0.038c0.01-0.864-0.259-1.685,0.197-2.62c-0.189-0.156-0.378-0.31-0.52-0.164  c-0.343-0.34,0.31-0.443,0.48-0.077c-0.589-0.933,0.518-0.667-0.293-1.063c0.641,0.019,0.807-0.921,0.149-1.381  c0.951-0.472,2.018-0.229,3.102,0.119c0.515-0.786,1.526-0.241,2.684-0.183c-0.541-0.049-0.582,0.164-0.537,0.451  c-0.002,0.003-0.004,0.004-0.006,0.006c0.002,0.002,0.006,0.003,0.008,0.004c0.044,0.272,0.161,0.609,0.007,0.857  c0.165,0.007,0.332,0.018,0.519,0.164c0.062-0.846,0.584-0.162,1.064-0.295c-0.07-0.38-1.124-0.455-1.59-0.727  c-0.001-0.003-0.001-0.006-0.002-0.01c0.827-0.893,0.584,0.815,1.297-0.326c0.674,0.717,0.837,0.646,1.853,1.553  c0.07-0.381-0.317-0.689-0.775-0.985c0.354-0.372,1.172-0.165,1.28,0.288c0.251-0.246,0.287-0.457,0.024-0.62  c0.576,0.263,0.995,1.596,2.231,1.615c-0.032-0.365-0.581-0.646-0.534-1.024c-0.332,0.403-0.604,0.345-0.799-0.365  c0.142-0.278,0.34-0.19,0.241-0.039c0.18,0.096,0.302-0.169,0.442-0.317c0.745,0.251,0.265,0.697,0.534,1.024  c0.473-0.315,0.484-0.462,1.087-0.914c0.653,0.326,2.38,1.11,3.203-0.02c0.571,0.231,0.526,0.388,1.179,0.428  c-0.263-0.369-0.165-0.797-0.193-1.203c0.315-0.074,0.762,0.069,0.799,0.366c-0.196,0.056-0.406,0.027-0.62-0.024  c-0.124,0.39,0.742,0.621,1.015,0.948c0.013-0.208-0.216-0.376,0.023-0.621c0.705,0.214,0.989,0.726,1.775,1.072  c-0.652-0.661-0.546-1.016-1.054-1.188c0.441-0.232,0.606-0.229,0.899,0.226c-0.561-1.263,2.608,0.168,2.469-0.765  c0.293-0.335,0.101,0.365,0.558,0.403c-0.183,0.147-0.405,0.042-0.582,0.217c0.098,0.32,0.612-0.04,0.356,0.683  c0.489,0.146,0.065-0.519,0.542-0.457c0.854,0.704,1.015,0.293,2.017,1.033c-0.035-0.304,0.104-0.259,0.302-0.418  c-0.627-0.298-1.74-0.482-2.016-1.034c0.142-0.146,0.34,0.066,0.521,0.163c0.378-0.544,0.182,0.559,1.038,0.328  c-0.135-0.325-0.663-1.123-0.976-0.707c0.086-0.916,0.973-0.091,1.279,0.287c0.027-0.291,0.11-0.593-0.255-0.821  c0.177-0.178,0.451,0.253,0.62,0.023c0.085,0.619,0.399,0.926,0.092,1.342c0.697,0.249,1.325,0.061,1.963-0.067  c-0.695-0.902-1.697-1.601-3.118-2.026c0.111-0.329,0.096-0.741,0.789-0.689c-0.105-0.429-1.204-0.132-0.789,0.345  c-0.545-0.097-0.556-0.269-0.261-0.517c-0.524,0.588-3.33-1.239-2.628-1.378c-1.78-0.498-2.29-1.829-3.941-2.411  c-0.309,0.028-0.223,0.314-0.264,0.518c-0.483-0.043-1.473-0.621-0.787-0.862c-0.229-0.584-2.496,0.157-1.841-0.688  c-0.56-0.081-0.5,0.245-0.523,0.516c-0.221,0.548-0.348-0.306-0.264-0.516c-0.309,0.026-0.222,0.313-0.264,0.516  c-1.431-0.772-3.277-1.127-4.203-0.86c-1.629-1.263-2.979-1.01-4.992-1.033c-0.122-0.368,0.376-0.328,0.788-0.345  c-0.116-0.154-0.23-0.309-0.526-0.345c-0.437,0.409-2.27,0.85-2.102-0.173c-0.572-0.03-0.836,0.142-0.788,0.518  c-0.572-0.897-1.348,0.116-2.364-0.689c0.223-0.255,0.846-0.25,1.314-0.344c-0.491-0.307,0.213-0.438,0-1.034  c-0.353,0.113-0.49,0.369-0.525,0.689c-0.63-1.179-2.139,0.23-2.627-0.861c-0.7,0.414,0.363,0.915-0.526,1.206  c-1.148,0.31-1.722-1.26-2.102-0.345c-0.57,0.028-0.119-0.61-0.262-0.861c0.344,0.062,0.413,0.304,0.788,0.345  c0.213-0.032,0.262-0.173,0.526-0.173c-1.826-0.899-2.591,0.531-4.205,0.345c0.074-0.393-0.063-0.647-0.524-0.688  c-0.681,0.297,1.029,0.626-0.789,0.516c0.074-0.393-0.063-0.647-0.525-0.688c-1.296,0.515-1.944,0.815-3.152,0  c-3.367,0.729-6.298-0.061-9.197-0.689c0.007,0.168,0.322,0.133,0.526,0.172c-0.497,1.071-2.219,0.464-3.416,0.518  c0.042-0.202,0.479-0.146,0.788-0.172c-0.065-0.188-0.522-0.118-0.525-0.346c-0.626,0.107-0.432,0.75-1.577,0.518  c0.597-0.605-0.554-0.567,0-1.034c-1.019-0.225-3.15,0.325-1.84,0.517c-1.148,0.216-2.46,0.774-3.152,0  c0.769,0.154,0.807,0.154,1.576,0c0.069-0.562-0.817-0.497-1.051-0.86c0.229-0.252,0.393-0.546,1.051-0.517  c-0.419-0.128,0.06-0.843-0.788-0.689c-0.071-0.686,1.35-1.286,1.051-1.55c0.079-0.312,1.104,0.175,1.313,0.344  c0.495-0.561,1.292-0.03,2.366-0.344c-0.168,0.376,0.744,0.548-0.263,0.517c1.875,0.711,1.038-2.622-0.789-1.55  c-0.251-0.321,0.788-0.575,0-0.688c0.758-0.25,1.708-0.373,2.364-0.689c-0.313-0.339-0.899,0.197-1.575-0.173  c-0.346,0.246-1.159,1.063-1.577,0.69c0.032-0.607,0.382-0.048,1.051-0.346c-0.139-0.139-0.274-0.279-0.263-0.516  c-0.473,0.441-1.485,0.633-2.365,0.344c0.401-0.27,1.775-0.889,0.525-1.205c0.612-0.561,1.635,0.739,1.839-0.345  c0.331,0.043,0.265,0.343,0,0.345c0.007,0.167,0.321,0.133,0.526,0.172c-0.043,0.202-0.479,0.146-0.788,0.173  c0.36,0.459,1.39,0.298,2.365,0.172c-0.08,0.704,0.364-0.029,1.051,0.172c0.309,0.716,1.973,0.544,2.627,1.034  c0.211-0.092,0.426-0.181,0.788-0.173c-0.702-0.263-1.305-0.59-2.102-0.345c0.126-0.616,0.428-0.995,0-1.55  c-0.255,0.005-0.203,0.211-0.262,0.345c-0.882-0.157-0.13-0.32-0.263-0.86c0.823,0.36,0.845,0.25,2.102,0.171  c-0.204,0.154-0.282,0.39-0.263,0.689c0.211-0.092,0.426-0.18,0.788-0.173c-0.064,0.188-0.521,0.117-0.525,0.345  c1.405,0.255,1.784,0.972,1.314,1.723c-0.309-0.028-0.223-0.313-0.264-0.518c-0.262,0.366-1.355,0.643-0.788,1.033  c-0.113,0.434-0.566-0.286-0.525-0.516c-0.41,0.248-0.519,0.693-1.577,0.516c0.113-0.27,0.827-0.147,0.525-0.688  c-0.384,0.149-1.018,0.136-0.788,0.688c-0.374-0.21-0.598-0.657-0.263-0.86c-0.85-0.213-0.201,0.557-1.051,0.345  c-0.074-0.279,0.248-0.297,0.263-0.518c-0.925,0.083-1.275,0.543-2.102,0.689c1.105,0.679,1.951,0.46,2.364,1.55  c-0.424,0.049-0.453-0.162-0.789-0.172c-0.569-0.029-0.119,0.61-0.262,0.86c0.881,0.562,2.696,0.246,3.415,0.518  c0.39-0.075-0.103-0.221,0-0.518c0.528,0.06,0.823-0.034,0.789-0.345c0.642,0.097,0.559,0.668,1.576,0.518  c0.045,0.373-0.932,0.078-1.314,0.173c0.193,0.16,0.478,0.26,0.789,0.344c1.103-0.722,0.743-0.349,2.102-0.689  c0.039,0.23-1.068,0.521-0.263,0.689c-0.395,0.569-0.643-0.358-1.314-0.172c0.513,1.141,2.313,0.656,1.839-0.518  c1.111,0.012,0.622,0.395,0.262,0.689c0.908-0.136,1.156,0.161,1.314,0.517c0.568-0.722-1.145-1.427-1.839-1.895  c-0.353,0.034-0.49,0.716-0.526,0c-0.568,0.42-0.621,0.785-2.102,0.517c0.008-0.167,0.322-0.133,0.526-0.173  c0.452-0.053-0.341-0.598,0.788-0.516c-0.033-0.381-1.114-0.073-1.577-0.172c-0.85-0.199,0.706-0.195,1.052-0.173  c0.069-0.504-0.594-0.529-0.526-1.033c1.059-0.177,1.167,0.269,1.578,0.517c0.654-0.33-0.903-0.66-0.789-1.206  c0.802,0.125,0.958-0.176,1.577-0.172c-0.243-0.413-1.91,0.104-1.577-0.688c0.86-0.35,1.582,0.614,2.365,0.86  c-0.152,0.418-0.992,0.383-1.576,0.518c0.32,0.248,1.002,0.261,1.313,0.516c-0.338,0.353-1.475,0.183-1.576,0.689  c0.285,0.572,1.651-0.549,1.313,0.517c0.752-0.275,2.612,0.213,2.364-0.861c0.507,0.694,1.099-0.046,1.84-0.172  c-0.003-0.513-1.599-0.176-2.103,0c-1.228-0.476,0.443-1.232-1.314-1.033c-0.284-0.44,1.131-0.603,0.263-0.861  c0.319-0.161,2.922-0.297,3.677-0.172c0.121-0.439,0.391-0.87,1.578-0.517c-0.916,0.377,0.205,0.767-1.051,1.032  c0.81,0.524,2.027,0.282,2.365,1.378c-0.684-0.004-2.341,0.855-1.314,0.862c-0.117,0.152-0.231,0.308-0.526,0.344  c-0.175,0-0.349,0-0.525,0c-0.074-0.278,0.248-0.296,0.263-0.517c-0.609,0.055-1.009-0.027-1.313-0.172  c0.11,0.595-1.054,0.609-2.366,0.688c0.245,0.256,1.893,0.277,0.263,0.344c0.565,0.318,1.858,0.16,1.576,1.034  c0.389-0.2,0.662-0.2,1.05,0c-0.771-1.022,0.685,0.183,0.789-0.689c0.665,0.016,0.767,0.737-0.263,0.518  c0.962,0.309,2.505-0.13,3.153,0c0.413-0.806-0.218-0.572-0.263-1.378c-0.981-0.185-0.748,0.428-1.576,0.345  c0.313-0.655,0.697-1.266,1.839-1.379c0-0.286,0-0.573,0-0.86c-0.106-0.332-1.204-0.016-0.788-0.688  c-0.692-0.052-0.208,0.667-1.051,0.516c-0.043-0.486,0.789-0.4,0.788-0.86c0.68,0.764,0.473,0.142,1.839,0.172  c-0.383,0.2-0.653,0.811,0,0.344c0.925,0.296-0.658,0.348-0.524,0.69c0.082,0.232,0.657,0.143,1.05,0.172  c-0.073,0.398-0.702,0.396-1.05,0.172c0.474,0.37,0.745,0.608-0.526,0.517c1.611,0.751,2.215-1.206,1.577-1.551  c0.721-0.271,1.213,0.103,2.102-0.171c-0.126,0.595,0.144,0.933,1.051,1.033c0.097,0.293-0.205,0.324-0.525,0.344  c0.474,0.263,0.804,0.62,1.84,0.517c-0.438,0.342,0.023,0.219,0,0.689c-0.545-0.102-0.896-0.332-1.051-0.689  c-0.464,0.378-0.913,0.5-0.526-0.172c-0.657-0.029-0.822,0.265-1.05,0.517c0.44,0.205,0.713,1.036,0.788,1.205  c0.064,0.444,0.452-0.236,1.051,0c-0.297,0.541,0.075,0.456-0.262,0.861c-0.4-0.573-1.121-0.28-1.577-0.516  c-0.357,0.053-0.219,0.431-0.264,0.688c0.229,0.261,0.394-0.047,1.051,0.173c0.108,0.414-0.481,0.374-0.262,0.861  c0.422-0.879,0.728,0.082,1.839-0.345c-0.854,0.544,0.783,0.064,0.525,0.688c0.211-0.091,0.427-0.18,0.789-0.173  c-0.246-0.699-1.514-0.729-2.628-0.86c0.319-0.664,1.224,0.126,1.314-0.688c-1.404-0.345,1.082-0.384-0.264-0.517  c0.027-0.438,0.98-0.407,1.315-0.173c0.298-0.032,0.146-0.172,0-0.172c0.059-0.248,0.783-0.061,0.788-0.344  c-0.993-0.528-2.134,0.317-3.416,0.171c-0.224-0.549,0.414-0.532,0.525-0.86c0.166,0.293,0.793,0.283,1.051,0.517  c0.743-0.264,1.12-0.872,2.102-0.517c-0.456-0.483-0.688-0.161-1.577-0.172c0.181-0.777-0.441-0.396-1.05-0.345  c0.453-0.163,0.43-0.637,1.313-0.517c0.084-0.304-1.472-0.308-1.051,0.172c-0.451-0.221-0.324-0.819-1.05-0.861  c0.083-0.365,0.813,0.246,1.05,0.346c0.29-0.2-0.685-0.688,0.789-0.69c0,0.173,0,0.345,0,0.518c0.302-0.061,0.667-0.303,0.263-0.345  c0.374-0.187,0.99,0.507,0.264,0.861c0.211-0.091,0.426-0.18,0.788-0.172c0-0.229,0-0.46,0-0.689  c0.391,0.147,0.565,0.434,0.526,0.861c0.49-0.337,0.962-0.053,1.576,0c-0.321,0.524-1.004-0.252-1.315,0.172  c0.556,0.521-0.201,1.311,0,2.412c-0.627-0.123-0.965-0.082-2.101-0.173c0.496,0.622,1.64-0.048,1.84,0.86  c0.928,0.152,1.353-0.441,1.576,0.173c0.277-0.367,1.483-1.361,0-1.378c0.736-0.527,1.604,0.316,1.839,0.689  c0.686-0.067,1.441-0.089,1.84-0.345c-0.366-0.305-0.91,0.203-1.314-0.345c-0.137,0.396-0.186,0.28-1.052,0  c0.884-0.286,0.044-0.45,0-1.033c-0.355,0.054-0.217,0.432-0.262,0.689c-0.799-0.051-0.361-0.911-1.051-1.034  c-0.117-0.765,2.278,0.116,2.101-0.688c0.333,0.241,1.388,0.01,1.051,0.688c1.436-0.035,1.785-0.782,3.416-0.688  c-0.117,0.604-0.84,0.542-0.788,0.861c-0.672,0.007-0.32-0.128-0.262-0.345c-0.589,0.188-1.316,0.285-1.839,0.517  c0.181,0.23,0.699-0.085,1.313,0.173c-0.28,0.39-0.596,0.757-1.051,1.032c0.326,0.314,1.563-0.227,1.577-0.688  c0.653,0.026,0.077,0.583,0,0.688c1.002,0.154,1.677-0.28,2.102,0c-0.077,0.359-0.712-0.255-0.789,0.346  c-0.082,0.456,1.474-0.162,1.052,0.516c0.165-0.293,0.794-0.283,1.051-0.516c-0.538-0.183-1.218,0.082-1.313-0.69  c0.727-0.021,0.901-0.327,0.526,0.173c0.263,0,0.523,0,0.787,0c1.185,0.638,1.316,0.238,0,0.861c2.205-0.33,5.056,0.92,4.73-1.034  c-0.067-0.226,0.439,0.45,0.787,0.862c0.644-0.02,0.056-0.569-0.264-0.518c0.264-0.287,1.216-0.121,1.315-0.516  c-0.602-0.417-0.933-0.208-1.839-0.173c0.761-0.534,3.171-0.281,4.203-0.344c0.038,0.483-0.644,0.496-1.314,0.517  c0.359,0.295,0.849,0.677-0.263,0.688c0.362,0.298,1.309-0.144,1.577,0.517c0.769,0.045,0.807-0.389,1.576-0.344  c-0.542,1.188-2.323-0.281-2.891,0.516c-0.85-0.074-0.212-1.123-1.576-0.861c0.042,0.202,0.479,0.146,0.788,0.173  c-0.668,0.323-0.121,0.366-0.788,0.688c0.479,0.035,1.494,0.206,1.839,0.172c0.382,0.077-0.026,0.151,0,0.345  c0.141,0.193,1.267-0.132,1.839,0.173c-0.191-0.161-0.478-0.261-0.787-0.345c1.151-0.318,4.89,0.227,1.576,0.517  c0.573,0.106,3.147,0.44,3.153-0.689c0.482,0.534,2.142-0.148,2.89,0.862c-1.06-0.609-0.464,0.971-1.577,0.86  c0.51,0.355,1.602,0.329,2.365,0.518c0.569,0.027,0.119-0.611,0.263-0.862c1.073-0.052-0.044,0.239,0.263,0.689  c0.86-0.28,1.004,0.039,2.103,0c0,0.287,0,0.573,0,0.86c-0.676-0.457-0.377,0.332-1.052,0.345c0.46,0.059,1.825,0.354,2.365,0.86  c0.256-0.004,0.203-0.21,0.262-0.343c-0.081-0.234-0.657-0.144-1.051-0.173c0.034-0.31-0.32-0.362-0.262-0.689  c1.056,0.034,1.075,0.022,0.788-0.516c0.071-0.041,0.158-0.072,0.252-0.098c-0.026-0.033-0.052-0.067-0.079-0.101  c0.208-0.505,0.577,0.009,0.784-0.495c-1.856,0.451-2.657-3.161-4.2-3.891c0.199-0.238,0.042-0.418,0.266-0.66  c-2.019-0.751-2.021-2.669-3.781-3.587c0.173-0.454,0.48-0.08,0.682-0.355c-1.609-0.446-1.184-0.989-1.813-1.313  c-0.106-0.564,0.189-0.616,0.568-1.078c-0.373-0.27-0.623,0.223-1.001-0.086c0.304-0.603,0.3-0.658,0.847-0.876  c-0.944,0.167-1.726,0.18-2.116-0.894c-0.216,0.594,0.055,0.43,0.255,0.822c-0.476-0.066-2.416-1.871-2.185-2.856  c-0.372-0.15,0.012,0.34-0.442,0.317c-0.083-0.686-0.928-1.25-0.448-2.024c0.621,0.251,0.661,0.466,1.078,0.567  c-1.109-0.759,1.385-0.496,0.428-1.178c-0.308-0.314,0.449-0.133,0.62,0.024c0.298-0.294-0.691-0.383-0.115-0.722  c0.302,0.469,0.509,0.461,1.077,0.567c-0.229,0.784-0.367,1.119-0.173,2c0.897,0.094,0.596,0.921,1.333,1.39  c0.406-0.025,0.764-0.364,1.163-0.433c0.129,0.539,0.153,0.414,0.736,0.745c0.045-0.253-0.109-0.476-0.355-0.684  c-0.587-0.066-1.238-0.541-1.722,0.029c-0.223-0.252-0.134-0.553-0.496-0.783c0.222-0.154,0.461-0.202,0.683-0.356  c-0.08,0.802,0.313,0.056,0.799,0.366c0.113-0.43-1.075-0.65-0.434-1.165c0.158,0.468,1.245,0.788,0.712,1.366  c0.166,0.007,0.332,0.019,0.521,0.164c0.008-0.167,0.018-0.332,0.164-0.52c-0.756,0.38-0.196-0.845-1.295-1.15  c0.628-0.104-0.146-0.272,0.265-0.659c0.236,0.199,0.417,0.042,0.658,0.265c0.146-0.491-0.519-0.067-0.457-0.545  c1.119-0.792,0.47,0.898,1.381,0.15c-0.249-0.182-0.2-0.544,0.403-0.559c-0.12,0.203-0.423,1.457,0.828,2.087  c-0.305,0.227-0.818,0.353-0.745,0.736c0.405-0.036,0.699-0.771,1.126-0.674c0.356-0.551-0.969-0.831-0.953-1.327  c0.365,0.288,1.705,0.419,1.154,1.049c0.893,0.293,0.736-0.671,0.428-1.18c0.426-0.147,0.269,0.348,0.799,0.366  c-0.49,0.083-0.145,0.32-0.023,0.621c-0.124,0.253-0.306,0.145-0.442,0.317c0.611,0.422,1.047,1.556,1.688,2.072  c-0.741,0.569-0.358,0.234-0.846,0.876c0.555,0.639,0.928,0.147,1.419,0.39c-0.934,0.375-0.058,0.442,0.154,0.961  c-0.12,0.275-0.3,0.186-0.48,0.077c-0.178,0.495,0.509,0.242,0.696,0.506c0.013-0.209-0.216-0.377,0.024-0.62  c0.519,0.958,1.149,1.046,2.054,1.273c-0.384,0.353,0.33,0.776-0.326,1.039c0.529,0.356,0.498,0.051,0.683-0.356  c0.063,0.176,0.128,0.349,0.279,0.202c0.206,0.296,0.104,0.642-0.086,1c-0.361-0.252-0.096-0.227,0.062-0.38  c-0.651-0.339-0.737-0.062-1.023,0.534c0.77,0.097,1.281,0.811,2.179,0.515c-0.183,0.147-0.405,0.042-0.583,0.216  c0.252,0.677,0.906,0.616,1.473,1.491c-0.272,0.331-0.502-0.302-0.559-0.403c-0.64,0.472,0.186,0.71,0.535,1.024  c-0.195,0.322-0.437,0.36-0.722,0.115c0.536,1.069,1.401,1.228,2.333,1.476c-1.269-0.104,0.156,0.191,0.014,0.861  c0.327-0.021,0.576-0.513,1.001,0.087c-0.135,0.186-0.269,0.371-0.403,0.558c0.251,0.28,0.41-0.007,0.581-0.217  c0.233,0.288,0.139,0.432-0.164,0.52c1.343,0.103,0.066,2.769,1.526,2.592c0.148,0.182,0.042,0.405,0.218,0.583  c-0.241,0.063-0.292-0.145-0.799-0.366c-0.243,0.285,0.448,0.421,0.596,0.645c-0.202,0.279-0.404,0.559-0.605,0.837  c0.139,0.102,0.278,0.202,0.419,0.303c0.094-0.139-0.094-0.231-0.179-0.342c0.17-0.478,0.459-0.219,0.644-0.596  c0.077,0.192-0.087,0.425,0.218,0.582c-0.142,0.146-0.34-0.067-0.521-0.164c0.866,0.803,0.43,0.213,1.333,1.39  c-0.123,0.254-0.306,0.145-0.441,0.317c0.203,0.172-0.011,0.502,0.634,0.886c-0.162-1.044,0.568,0.395,0.737,0.745  c0.709-0.236,0.388-0.209,0.836,0.605c-1.104,0.234-0.874-0.639-1.899-0.312c-0.081,0.302,0.257,0.318,0.379,0.063  c0.222,0.211,0.145,0.47-0.125,0.76c0.495,0.261,0.874-0.195,1.306-0.332c0.245,0.453,0.685,0.876,0.711,1.366  c-0.277,0.301-0.257-0.431-0.457-0.544c-0.066,0.814-0.137,0.535-0.684,0.355c-0.179,0.234-0.156,0.437-0.023,0.621  c0.976-0.036,0.5,0.268,1.458,0.63c-0.559,0.064,0.087,1.115-0.605,0.836c-0.097,0.181,0.169,0.303,0.317,0.443  c0.294,0.297,0.382-0.691,0.721-0.116c-0.124,0.254-0.306,0.146-0.442,0.318c0.094,0.066,0.187,0.134,0.278,0.201  c0.692-0.595,1.033,2.006,1.627,2.453c0.09,0.565-0.863,0.725-0.326,1.04c-0.181,0.156-0.434-0.138-0.66-0.266  c-0.134,0.406,0.686,0.986-0.187,1.141c0.991,0.38,1.096,1.059,1.472,1.49C96.114,66.029,96.894,66.316,96.239,66.831z   M78.457,42.056c-0.017-0.534-1.485-0.999-1.318-0.529C77.496,41.432,77.871,42.237,78.457,42.056z M39.753,43.973  c-1.369-0.169-0.47-0.755-1.577-1.033c0.083,0.598,0.399,0.653,0,1.205C38.639,44.046,39.72,44.353,39.753,43.973z M24.777,46.211  c-0.929-0.031-1.438,0.729-2.103,0.345c0.045,0.258-0.093,0.636,0.263,0.688c0.102-0.264,0.315-0.025,0,0.172  c0.159,0.1,1.246,0.403,1.313,0c-0.31-0.083-0.596-0.184-0.788-0.344c0.262,0,0.525,0,0.788,0c0.045-0.258-0.094-0.636,0.263-0.689  C24.675,46.373,24.825,46.358,24.777,46.211z M26.091,48.621c0.516,0.052,0.521-0.23,0.788-0.343  c0.059,0.133,0.007,0.339,0.263,0.343C28.07,48.124,25.807,47.789,26.091,48.621z M26.879,46.556  c-1.491,0.069-0.398,0.766,0.263,0.86c-0.16,0.01-0.311,0.026-0.263,0.173c0.437,0,0.875,0,1.313,0  C28.317,46.623,26.587,47.764,26.879,46.556z M30.032,47.761c-0.559,0.737-0.396-1.315-1.051-0.517  c0.16,0.01,0.311,0.026,0.263,0.172c-0.693-0.052-0.677,0.36-0.789,0.689c0.946-0.313,0.775,0.03,1.577,0.173  C30.061,48.048,30.524,47.328,30.032,47.761z M34.761,48.621c-0.697,0.003-1.546-0.095-1.577,0.345  C33.394,49.106,34.795,49.147,34.761,48.621z M35.287,47.416c0.112,0.477-0.979,0.163-1.051,0.518  c0.205,0.037,0.305,0.145,0.263,0.345C35.419,48.376,36.212,47.512,35.287,47.416z M40.279,49.139  c-0.154,0.412-0.552-0.416-0.789-0.518c-0.349,0-0.7,0-1.05,0c0,0.173,0,0.345,0,0.518c0.91-0.262,1.633,0.048,0.788,0.518  C39.909,50.044,41.09,49.584,40.279,49.139z M41.33,48.278c-0.499,0.38-1.792-0.563-1.577,0c0.175,0,0.35,0,0.525,0  c-0.342,0.229-0.346,0.641,0.262,0.688C40.647,48.634,41.56,48.83,41.33,48.278z M42.643,48.621  c-0.541-0.046-0.247-0.64-0.788-0.688c0.292,0.541,0.123,0.455-0.263,0.86C42.25,48.816,42.415,49.123,42.643,48.621z   M44.482,45.178c0.438,0,0.875,0,1.314,0c-0.022-0.43,1.434-0.764,0.788-1.033c-0.014,0.104-0.039,0.204-0.262,0.172  c-0.422-0.604-0.377,0.084-1.051-0.172C46.119,44.547,44.045,44.476,44.482,45.178z M44.745,48.966  c0.06,0.135,0.008,0.341,0.263,0.345c0.133-0.54-0.619-0.703,0.264-0.86c-0.074,0.393,0.063,0.647,0.525,0.688  c-0.044-0.477,0.404-0.592,0.788-0.345c-0.29-0.473-1.297-0.863-2.102-0.688c0.309,0.027,0.745-0.029,0.789,0.173  c-0.39,0.199-0.662,0.199-1.051,0c0.496,0.578-1.19,0.563-0.263,0.86C44.001,48.938,44.373,48.952,44.745,48.966z M46.848,49.656  c-0.179-1.075-1.317-0.035-2.103,0c0.001-0.096-0.212-0.196-0.262,0C45.164,50.082,45.771,49.487,46.848,49.656z M52.102,49.483  c-0.161-0.051-1.011-0.429-1.05,0c0.766-0.202,0.256,1.14,1.05,0.688C51.448,50.146,52.024,49.589,52.102,49.483z M52.891,47.934  c-0.306-0.145-0.705-0.228-1.314-0.173c-0.045,0.258,0.094,0.637-0.264,0.689c0.08-0.339-0.353-0.342-0.524-0.517  c0.003-0.228,0.46-0.157,0.524-0.345c-0.877-0.385-1.223,0.47-2.101-0.173c0.686,0.706,1.642,0.793,1.366,1.428  c-0.055,0.032-0.087,0.071-0.052,0.122c0.028-0.045,0.035-0.082,0.052-0.122c0.244-0.144,1.152-0.105,0.999,0.122  c-0.276,0.01-0.206,0.222,0.263,0.173C51.776,48.468,52.233,48.134,52.891,47.934z M55.779,48.621  c-0.346-0.001-0.239-0.301-0.524-0.343c0.277,0.641-0.886,0.338-1.051,0.688c1.017-0.149,0.935,0.421,1.575,0.518  c0.059-0.135,0.221-0.2,0.527-0.173c0.104-0.295-0.392-0.441,0-0.517c1.937,0.425,2.377,0.078,4.203,0  c-0.308-0.725-1.104-0.792-0.525-1.378c-0.725,0.086-1.947-0.706-1.313,0c0.016-0.104,0.038-0.203,0.264-0.172  c0.043,0.488,0.48,0.718,0.523,1.206c-1.069,0.189-1.895,0.022-2.364-0.345c1.151,0.125-0.211-0.342,0.525-0.345  c0.175,0.696,0.789,0.301,1.315,0.518c0.208-0.641-1.622-0.319-0.789-0.862c-1.475,0.035-0.288-0.288-0.264-0.688  c-0.651-0.025-1.274-0.032-1.313,0.344C57.389,47.564,55.812,48.182,55.779,48.621z M53.416,47.416  c0.512,0.414,2.47,0.706,2.891,0.173C54.986,47.871,54.392,46.788,53.416,47.416z M54.729,50.517c0-0.173,0-0.345,0-0.516  c-0.612,0.057-1.131,0.175-1.313,0.516c0.378-0.092,0.641,0.671,0.788,0.172c-0.16-0.01-0.312-0.025-0.264-0.172  C54.316,50.449,54.385,50.311,54.729,50.517z M57.356,50.172c-0.437,0.021-2.379-0.095-1.577,0.172  c0.394,0.029,0.97-0.062,1.051,0.173c-0.753,0.406-1.394-0.109-2.102,0.172c0.683,0.503,0.01,0.56,0.264,0.86  c0.023-0.238,0.67-0.181,0.525,0.173c0.584-0.133,1.425-0.1,1.576-0.516c-0.32-0.02-0.622-0.052-0.525-0.345  C57.963,51.259,56.626,50.634,57.356,50.172z M59.722,50.517c-0.742,0.029-1.802-0.148-1.84,0.345  C58.548,50.552,59.372,51.189,59.722,50.517z M60.247,52.411c-0.736-0.328-1.353-0.409-0.263-0.689  c-0.554-0.153-0.777-0.524-1.577-0.516c-0.277,0.918,0.554,0.042,0.788,0.516c-0.348,0.174-0.978,0.164-1.05,0.517  C58.661,52.315,59.77,52.878,60.247,52.411z M61.297,50.688c-0.741,0.144-0.68-0.242-1.313-0.172  c-0.077,0.35-0.526,0.458-0.789,0.689c2.313-0.506,1.447,1.449,2.102,0c-0.159-0.24-1.01-0.027-1.05-0.345  C60.592,50.884,62.147,50.888,61.297,50.688z M62.611,47.934c0.351,0,0.701,0,1.052,0c-0.02-0.3,0.058-0.535,0.262-0.689  c-0.161-0.05-1.011-0.428-1.051,0c0.594,0.097-0.318,0.269,0.264,0.517C62.769,47.748,62.133,47.8,62.611,47.934z M62.874,51.549  c0.771-0.011,1.481-0.062,1.314-0.688c-0.264,0-0.525,0-0.789,0c-0.012,0.236,0.124,0.378,0.264,0.517  C63.341,51.322,62.04,51.405,62.874,51.549z M64.713,51.894c-0.257-0.461-1.755-0.245-1.05,0.173  c-0.459,0.341-0.23,0.597-0.525,0.86c0.521-0.001,0.333-0.47,1.051-0.344c0-0.114,0-0.229,0-0.345c-0.265,0-0.313-0.14-0.525-0.172  C63.841,51.631,64.536,52.688,64.713,51.894z M56.172,64.618c-0.331-0.271-0.657-0.516-0.898-0.226  C55.545,64.714,55.769,65.076,56.172,64.618z M56.398,63.719c0.134-0.196,0.288-0.258,0.442-0.317  c-0.048-0.37-0.511-0.606-0.76-0.124C56.277,63.408,56.34,63.563,56.398,63.719z M57.034,64.604  c-0.135,0.184-0.338-0.049-0.481,0.077c0.199,0.247-0.169,0.104-0.342,0.177c0.373,0.271,0.744,0.54,1.116,0.809  c0.141-0.148,0.263-0.413,0.442-0.317c-0.094,0.179,0.11,0.311,0.317,0.442C58.292,64.756,56.714,65.531,57.034,64.604z   M61.55,62.771c-0.501,0.449,0.553,0.65,0.054,1.101C62.086,64.297,62.025,62.979,61.55,62.771z M68.674,66.438  c-0.133,0.196-0.287,0.258-0.442,0.317c0.16,0.399,0.461,0.229,0.736,0.745C69.307,67.076,68.599,66.82,68.674,66.438z   M73.229,64.845c-0.19,0.354-0.515-0.137-0.722,0.116c0.207,0.112-0.404,0.938,0.217,0.582c-0.079-0.07-0.15-0.142-0.039-0.241  C72.799,65.102,73.558,65.291,73.229,64.845z M84.682,52.927c0.006-0.007,0.014-0.019,0.021-0.025  c-0.041-0.065-0.08-0.132-0.126-0.188C84.639,52.943,84.711,53.075,84.682,52.927z M83.632,51.033  c0.076,0.019,0.137,0.03,0.197,0.042c-0.066-0.092-0.134-0.186-0.203-0.282C83.595,50.852,83.587,50.926,83.632,51.033z   M84.522,51.938c-0.025,0.109-0.03,0.229-0.021,0.351c0.088-0.035,0.181-0.046,0.259-0.145  C84.684,52.092,84.604,52.021,84.522,51.938z M86.394,46.949c0.267,0.237,1.029,1.256,0.938,0.467  c-0.408,0.252-0.288-0.597-0.495-0.783c0.511,0.247,0.58,0.564,0.874,0.847c0.479-0.324,0.026-0.498,0.126-0.761  c0.139,0.102,0.248,0.007,0.38,0.063c-0.199,0.237-0.098,0.427,0.216,0.582c0.17-0.273,0.247-0.533,0.126-0.76  c-0.846,0.343-0.436-0.817-1.217-0.669c0.342,0.274,0.394,0.595,0.153,0.962c-0.154-0.222-0.201-0.461-0.355-0.682  c-0.229,0.576-0.628-0.092-0.66-0.266C86.303,46.559,86.758,46.49,86.394,46.949z M86.206,48.09  c-0.126,0.227-0.422,0.479-0.264,0.659c0.748,0.068,1.535,0.231,1.775,1.072c0.371-0.049,0.516-0.496,0.364-0.799  c-0.598,0.432-0.378-0.229-0.697-0.505C86.854,49.177,86.397,48.275,86.206,48.09z M85.292,47.003  c0.049,0.28,0.379,0.516,0.736,0.746C86.548,47.445,85.449,46.792,85.292,47.003z M84.776,43.016  c0.055,0.605,1.51,0.906,0.977,0.707C85.306,43.574,85.294,42.746,84.776,43.016z M83.252,40.424  c-0.182,0.156-0.392,0.122-0.544,0.457c-0.104-0.093-1.195-1.196-1.597-0.731c0.512,0.116,1.073,0.544,1.636,0.972  C83.005,40.685,83.681,41.008,83.252,40.424z M84.444,41.712c-0.366,0.103-0.611-0.619-1.139-0.187  C83.665,41.92,84.651,42.31,84.444,41.712z M83.059,50.017c-0.037-0.049-0.076-0.097-0.114-0.146  c-0.06,0.026-0.101,0.065-0.102,0.13C82.917,50.001,82.986,50.012,83.059,50.017z M79.69,51.894c0.783,0.247,0.893-0.14,1.575,0.173  C81.6,51.164,79.957,51.68,79.69,51.894z M75.748,48.966c0.351,0.225,0.793,0.106,1.051-0.172c-0.306-0.028-0.285-0.272-0.263-0.516  c0.864,0.125,0.403-0.343,0-0.345C76.461,48.4,76.198,48.745,75.748,48.966z M75.594,51.231c0.249,0.09,0.055,0.366-0.107,0.49  c0.865,0.113,0.915,0.493,1.05,0.689c0.727-0.603,0.474-0.525-0.261-0.689c0.067-0.241,0.575-0.196,0.787-0.344  c0.937,0.376,0.434,1.22,0.525,1.378c0.058-0.135,0.22-0.2,0.525-0.173c0.308-0.451-0.811-0.741,0.263-0.689  C78.111,51.008,76.212,51.325,75.594,51.231z M74.435,52.583c0.607,0.4,1.398,0.043,1.313-0.517  c-0.843-0.151-0.544,0.447-1.051,0.517C74.698,52.486,74.485,52.388,74.435,52.583z M74.96,50.001  c-0.501-0.075-0.475-0.494-1.313-0.345c0,0.172,0,0.345,0,0.516C74.26,49.915,74.779,50.23,74.96,50.001z M73.384,49.311  c1.051-0.767,1.073,0.23,2.103,0.346C75.883,48.492,72.614,48.349,73.384,49.311z M67.604,48.794  c0.411-0.046,2.037-0.349,2.364,0.345c-0.31,0.026-0.745-0.029-0.788,0.172c1.137,0.269,2.795-0.252,3.152-0.689  c-0.954-0.104-0.975-0.139-1.838-0.516c0.045,0.432-0.588,0.418-0.788,0.688C69.825,48.167,66.7,48.431,67.604,48.794z   M67.223,51.198c0.04,0.003,0.071,0,0.118,0.008C67.258,51.145,67.229,51.152,67.223,51.198c-0.648-0.046-0.433,0.473-1.195,0.351  c0.079-0.278-0.354-0.464-0.525-0.171c0.146,0.421,1.337,0.157,1.051,0.86C67.447,52.052,67.197,51.362,67.223,51.198z   M73.647,54.994c-1.052-0.528,0.482-0.905-0.526-1.205c-0.303,0.102-1.486,0.333-2.103,0c-0.225-0.799,0.414-0.181,0.526-0.518  c-0.576-0.738-1.459,0.398-1.839-0.345c0.629-0.527,1.24,0.125,0.788-0.688c1.02-0.055,0.813-0.912,1.838-0.517  c-0.136-0.438-0.479-1.624-1.051-1.205c0.39,0.032,0.242,0.416,0.264,0.689c-0.634-0.071-0.571,0.313-1.314,0.172  c0.013-0.238-0.124-0.378-0.263-0.517c0.826-0.198,0.64,0.271,1.051,0.345c0-0.287,0-0.575,0-0.862  c-0.599,0.049-0.986-0.04-1.051-0.343c0.831,0.026,1.587,0.005,1.84-0.345c-1.803,0.211-3.907,0.274-4.993,0  c0.473-0.331,0.074-1.062-0.787-1.035c0.157,0.308-0.77,0.717,0,0.862c0.494-0.304-0.359-0.534,0.525-0.689  c0.909,0.705-1.341,0.988-0.525,1.55c0.824-0.384,0.65-0.083,0.264,0.345c0.851-0.642,2.088-0.073,2.361,0.121  c0.003,0.019-0.001,0.032,0.003,0.052c0.077,0.024,0.066-0.002-0.003-0.052c-0.051-0.36,0.088-0.598,0.527-0.638  c1.103,0.451-0.041,1.917,1.314,1.55c-0.146,0.001-0.299-0.139,0-0.173c0.002,0.229,0.461,0.159,0.524,0.345  c-1.12,0.299-1.788,0.895-2.363,1.551c0.295,0.317,2.24-0.457,2.102,0.517c-0.362,0.007-0.577-0.081-0.789-0.172  c0.046,0.955,1.301,0.056,1.84,0.688c-0.102,0.09-1.276,0.256-0.526,0.345c0.39-0.089,0.663-0.255,1.051-0.345  C72,55.155,72.953,54.99,73.647,54.994z M73.647,51.033c0.072,0.471-1.571-0.306-0.789,0.173c0.161,0.01,0.312,0.025,0.263,0.172  c-0.203,0.038-0.519,0.005-0.525,0.171c0.205,0.04,0.306,0.145,0.263,0.345C73.51,51.961,74.012,51.064,73.647,51.033z   M75.748,55.854c-0.014-0.847,0.959-0.336,1.577-0.344c-0.588-0.535-3.479-1.404-3.152-0.517c-0.188-0.279,1.237-0.279,1.051,0  c-0.688-0.049-1.13,0.063-1.051,0.517C74.201,55.951,75.053,55.854,75.748,55.854z M77.851,57.062  c-0.653,0.283-2.796,0.236-3.153,0.171c0.317,0.729,2.091-0.15,2.891,0.345c-0.393,0.259-1.178,0.262-1.052,0.861  c1.103-0.161,0.353-0.536,1.577-0.689C77.375,57.823,78.771,57.107,77.851,57.062z M80.478,54.306c-0.317-0.036-0.161-0.191,0-0.345  c-1.422-0.197-2.316,0.243-3.152-0.172c0.082-0.233,0.374-0.33,0.263-0.689c-0.175,0-0.351,0-0.525,0  c-0.16,0.01-0.312,0.026-0.264,0.172c0.446,0.066-0.68,1.945,0.264,1.378c-0.16-0.01-0.312-0.025-0.264-0.173  C78.503,54.146,79.876,54.431,80.478,54.306z M79.952,56.372c-0.266-0.002-0.33-0.302,0-0.345c0.605,0.342,0.292-0.044,0.789-0.173  c0.251,0.321-0.787,0.576,0,0.689c0.028-0.325,0.868-0.119,0.788-0.517c-0.77,0.081-0.396-0.463-0.264-0.517  c0.683,0.221,0.118,0.82,0.526,0.861c0.338-0.322,1.475-0.005,1.576,0c0.03,0.176-1.134,0.349-0.264,0.517  c0.072-0.604,1.164,0.312,1.051-0.172c-0.112-0.102,1.553-0.769,2.104-0.518c0-0.115,0-0.229,0-0.345  c-0.006-0.044-0.018-0.085-0.042-0.117c-0.005-0.008-0.011-0.016-0.016-0.022c-0.036-0.031-0.097-0.047-0.205-0.031  c-0.06,0.133-0.008,0.339-0.264,0.344c-0.055-0.193-0.292-0.268-0.524-0.344c-0.032,0.438-0.383,0.667-1.053,0.688  c0.084-0.233,0.374-0.33,0.264-0.688c-0.496,0.038-0.579-0.194-1.051-0.173c-0.464,0.154-0.767,0.415-1.314,0.517  c-0.08-0.397,0.759-0.191,0.789-0.517c-0.6-0.236-0.988,0.443-1.051,0c0.771-0.146-0.157-0.555,0-0.861  c-0.417,0.271-1.783-0.197-1.314,0.172c0.453-0.008,0.675,0.134,0.788,0.345c-0.535,0.051-0.515,0.466-1.051,0.518  c-0.467-0.106-0.526-0.036-1.313,0.344C79.701,55.758,79.349,57.079,79.952,56.372z M81.266,56.717  c-0.381,0.094-1.357-0.202-1.313,0.172c0.31,0.026,0.746-0.029,0.789,0.173c-0.725-0.222-1.286,0.502-0.789,0.516  c0.068-0.268,0.576-0.119,0.789,0C80.544,57.047,81.646,57.367,81.266,56.717z M82.67,62.963c-0.098,0.303-0.763,0.697-0.467,0.938  C82.354,63.656,83.298,63.34,82.67,62.963z M86.687,64.17c-0.184-0.136,0.049-0.338-0.077-0.481  c-0.224,0.397-0.524,0.318-0.861,0.015c-0.187,0.234-0.282,0.456-0.264,0.658c-0.196-0.133-0.26-0.287-0.318-0.441  c-0.189,0.354-0.411,0.519-0.644,0.596c0.478,0.076,0.384,0.388,0.659,0.265C85.15,64.29,86.249,64.301,86.687,64.17z   M94.155,63.836c-0.604,0.219-1.271-0.133-1.115-0.809c-0.484-0.21-0.083,0.396-0.404,0.558c-0.553-0.161-0.325-0.215-0.837-0.605  c-0.306-0.516,0.607,0.31,0.76,0.126c-0.084-0.88-0.841-0.434-1.496-0.871c-0.868-1.326-2.366-3.12-3.238-4.044  c0.412-0.517-0.077-0.134-0.317-0.442c0.124-0.255,0.307-0.145,0.442-0.318c-0.425-0.102-0.708-0.315-0.945-0.59  c-0.563,0.097-1.021-0.403-2.06-0.123c-0.077,0.452,1.02,0.136,0.788,0.688c-0.234-0.104-0.47-0.207-0.524,0  c-0.309-0.027-0.223-0.313-0.264-0.516c-0.903,0.843-1.246-0.209-2.628,0.173c-0.381-0.077,0.027-0.151,0-0.345  c-0.092-0.271-0.462,0.149-0.524-0.173c-0.748-0.03,0.317,1.127-0.789,0.86c0.79,0.278,1.272-0.382,2.102,0.345  c-0.072,0.362-0.701-0.249-1.051,0.173c0.816,0.2-0.14,0.497,0.789,0.517c0.117,0.479-1.433-0.136-1.313,0.344  c0.285,0.09,1.073,0.296,1.839,0.518c-0.003,0.342-0.717,0.219-0.525,0.689c-1.365-0.512-1.13,1.591,0.262,1.721  c0.325,0.558-0.85,0.132-0.524,0.689c-0.636-0.652-1.085-0.633-2.427-0.547c0.046,0.313-0.366,0.224-0.385,0.711  c0.491,0.147,0.067-0.519,0.544-0.457c0.187,0.135,0.373,0.27,0.558,0.404c-0.185,0.127-0.385,0.156-0.62-0.022  c-0.075,0.175,0.21,0.294,0.078,0.48c0.787-0.215,0.993-0.167,1.644-0.511c0.598,0.221,1.39,0.802,1.481,0.009  c0.346,0.271-0.046,0.759-0.365,0.799c0.094,0.067,0.187,0.135,0.279,0.202c0.155-0.516,0.975-0.253,1.467-0.852  c0.465,0.976,1.364,0.424,2.117,0.894c0.184-0.567-1.615-0.047-0.775-0.985c0.416,0.761,1.597,0.428,2.279,0.374  c-0.179,0.499,0.662,0.703,1.04,0.326c0.062,0.177,0.126,0.35,0.278,0.202c-0.269,0.91,0.896,0.181,0.876,0.848  c0.47-0.145,0.91-0.477,1.481,0.009c0.198-0.237,0.042-0.418,0.264-0.659c0.237,1.06,0.114-0.232,0.938,0.467  c-0.325,0.013-0.584,0.46-0.962,0.154c-0.242,0.285,0.45,0.421,0.597,0.644C93.042,64.067,93.72,64.477,94.155,63.836z   M94.699,63.379c-0.125-0.22-1.202-1.233-1.559-0.49C93.678,63.157,94.181,63.222,94.699,63.379z M95.555,61.021  c-0.176-0.149-0.58-0.818-0.418-0.303c0.079,0.069,0.149,0.141,0.037,0.24c-0.353-0.409-0.583-0.057-0.938-0.467  c-0.131,0.554-0.99,0.366-0.745,0.736c0.178-0.17,0.422,0.063,0.62,0.024c0.182,0.575-0.401,0.508-0.086,1.001  c0.229-0.197,0.158,0.158,0.419,0.303c0.05-0.584,0.02-1.155-0.03-1.723C94.836,61.149,95.218,61.222,95.555,61.021z M54.499,66.579  c0.008,0.013,0.011,0.018,0.02,0.03C54.564,66.598,54.544,66.589,54.499,66.579z"/><text x="0" y="115" fill="#000000" font-size="5px" font-weight="bold" font-family="'Helvetica Neue', Helvetica, Arial-Unicode, Arial, Sans-serif">Created by Nur</text><text x="0" y="120" fill="#000000" font-size="5px" font-weight="bold" font-family="'Helvetica Neue', Helvetica, Arial-Unicode, Arial, Sans-serif">from the Noun Project</text></svg>