<svg width="757" height="42" viewBox="0 0 757 42" fill="none" xmlns="http://www.w3.org/2000/svg">
<path d="M754.5 12.5703C598.976 9.82915 444.79 4.718 288.982 3.58053C199.422 2.9267 -68.411 1.01274 20.2412 4.70424C165.957 10.7719 316.556 10.5769 463.27 14.6572C520.115 16.2382 576.504 18.3573 633.061 20.5969C654.825 21.4588 671.824 22.9152 636.996 22.3628C481.556 19.8971 326.922 14.4175 171.478 11.7677C154.89 11.4849 105.744 11.3471 121.722 12.6506C180.29 17.4286 243.122 19.3109 303.038 21.9614C375.188 25.1532 448.506 27.1465 520.054 31.3526C545.756 32.8635 580.178 33.3349 604.106 36.4093C646.45 41.85 511.382 38.5038 464.957 38.2555C387.694 37.8421 310.52 36.5686 233.323 35.6869" stroke="#FD6225" stroke-width="5" stroke-linecap="round"/>
</svg>
