<svg xmlns="http://www.w3.org/2000/svg" xmlns:xlink="http://www.w3.org/1999/xlink" version="1.1" x="0px" y="0px" viewBox="0 0 100 125" style="enable-background:new 0 0 100 100;" xml:space="preserve"><path d="M76.6,46.1C75.2,66,59.3,81.9,39.5,83.2c-1.6,0.1-2.8,1.4-2.8,3v0.7c0,1.7,1.4,3.1,3.2,3c23.3-1.6,41.9-20.2,43.4-43.4  c0.1-1.7-1.3-3.2-3-3.2h-0.7C78,43.3,76.7,44.6,76.6,46.1z"/><path d="M36.7,13.2c0-1.8,1.6-3.2,3.3-3C56.8,11.8,70,26,70,43.3c0,17.3-13.2,31.5-30,33.2c-1.8,0.2-3.3-1.2-3.3-3v-0.7  c0-1.5,1.2-2.8,2.7-2.9c13.4-1.4,23.9-12.7,23.9-26.5c0-13.8-10.5-25.2-23.9-26.5c-1.5-0.2-2.7-1.4-2.7-2.9V13.2z"/><path d="M17,39.9c1.7-9.7,10.4-17.1,20.8-16.5c9.7,0.5,17.7,8.1,18.8,17.7c1.2,10.9-6.3,20.2-16.4,22c-1.8,0.3-3.4-1.1-3.4-3l0-0.6  c0-1.6,1-2.8,2.5-3.1c6.7-1.2,11.6-7.5,10.8-14.6c-0.7-6.1-5.6-11.1-11.7-11.7c-7.2-0.8-13.4,4.1-14.6,10.8  c-0.3,1.4-1.5,2.5-2.9,2.5c-0.3,0-0.6,0-0.6,0C18.1,43.3,16.6,41.7,17,39.9z"/><text x="0" y="115" fill="#000000" font-size="5px" font-weight="bold" font-family="'Helvetica Neue', Helvetica, Arial-Unicode, Arial, Sans-serif">Created by Danil Polshin</text><text x="0" y="120" fill="#000000" font-size="5px" font-weight="bold" font-family="'Helvetica Neue', Helvetica, Arial-Unicode, Arial, Sans-serif">from the Noun Project</text></svg>