<svg xmlns="http://www.w3.org/2000/svg" xmlns:xlink="http://www.w3.org/1999/xlink" version="1.1" x="0px" y="0px" viewBox="0 0 100 125" enable-background="new 0 0 100 100" xml:space="preserve"><g><path d="M77.429,64.643c-0.164-1.888-0.334-3.84-0.174-5.684c0.042-0.483,0.088-0.966,0.134-1.448   c0.216-2.268,0.438-4.612,0.253-6.963c-0.036-0.475-0.089-0.946-0.159-1.419c-0.467-3.146-0.587-5.961-0.4-9.41   c0.146-2.704,0.14-5.813-1.013-8.373c-1.683-3.739-4.274-4.49-7.961-4.49c-2.164,0.004-4.36,0.088-6.484,0.169   c-1.841,0.07-3.739,0.143-5.611,0.163c0.009-0.044,0.018-0.088,0.025-0.134c0.636-3.977-0.215-5.89-2.487-8.92   c-0.715-0.999-1.367-1.969-2.669-2.635C50.514,15.177,50.06,15,49.66,15h-0.599c-0.066,0-0.159,0.025-0.289-0.006   C48.224,14.8,47.704,15,47.13,15h-0.254l-0.105-0.013c-0.201,0.101-0.529,0.156-0.624,0.178c-1.624,0.324-3.202,1.233-4.329,2.519   c-0.854,0.854-2.368,2.419-2.911,3.368c-0.812,1.464-0.812,3.352-0.812,4.733l-0.002,0.426c-0.002,0.385-0.005,0.807,0.007,1.242   c-0.132,0.03-0.269,0.063-0.413,0.1c-0.402,0.135-0.817,0.273-1.191,0.273l-0.182-0.021l-0.146,0.146   c-0.021,0.012-0.085,0.023-0.122,0.024c-0.61,0-1.26-0.04-1.888-0.078c-0.607-0.037-1.195-0.072-1.713-0.072l-0.158,0.025   c-0.342,0.115-0.664-0.047-1.116,0.177c-0.068,0.035-0.146,0.069-0.225,0.104c-0.194,0.086-0.392,0.174-0.542,0.293   c-0.85,0.002-1.724,0.028-2.61,0.323c-3.214,1.022-3.815,3.584-4.453,6.297c-0.074,0.316-0.149,0.637-0.231,0.965   c-0.898,3.795-0.687,7.562-0.481,11.207c0.108,1.912,0.22,3.89,0.168,5.846c-0.069,2.665-0.157,5.982-0.434,9.086   c-0.198,2.216,0.052,3.958,0.34,5.975c0.082,0.57,0.166,1.158,0.243,1.782c0.116,0.943,0.176,1.915,0.234,2.854   c0.09,1.453,0.184,2.955,0.483,4.436c0.099,0.484,0.153,0.922,0.203,1.318c0.191,1.516,0.343,2.713,2.55,3.611   c4.651,1.894,9.638,1.894,14.037,1.894l2.018,0.002c2.154,0.009,4.355,0.104,6.483,0.197c2.92,0.128,5.939,0.259,8.903,0.171   c1.483-0.046,3.034,0.087,4.684,0.227c1.444,0.122,2.939,0.248,4.395,0.248c1.909,0,3.431-0.214,4.788-0.673   c2.693-0.912,4.149-2.875,4.584-6.178c0.127-0.974,0.285-1.976,0.445-2.993c0.496-3.144,1.008-6.396,0.757-9.443L77.429,64.643z    M48.794,16.3C48.794,16.3,48.794,16.3,48.794,16.3l0.606-0.001c-0.002,0-0.004,0.001-0.006,0.001   C49.244,16.3,48.795,16.3,48.794,16.3L48.794,16.3L48.794,16.3z M45,24.412c0-1.991,1.325-2.883,2.715-2.883   c1.01,0,1.951,0.464,2.649,1.271c0.854,0.988,1.073,1.979,0.67,2.861c-0.502,1.098-1.984,1.926-3.435,1.926   c-0.579,0-1.036-0.136-1.458-0.393C45.347,26.714,45,25.803,45,24.562V24.412z M43.844,24.412c0-0.257,0.028-0.496,0.069-0.725   C43.876,23.919,43.844,24.155,43.844,24.412C43.844,24.412,43.844,24.412,43.844,24.412z M60.313,71.558l0.005-0.006l0.005,0.006   C60.322,71.558,60.313,71.558,60.313,71.558z M63.107,58.725c-0.9,0.3-1.8,0.45-2.7,0.6c-1.5,0.3-3.45-0.15-4.05,1.65   c-0.524,1.31-0.535,2.771-0.427,4.208c-0.008,0.047-0.013,0.097-0.023,0.142c-0.09,0.361-0.289,0.992-0.433,1.438   c-0.706,0.119-1.39,0.273-1.967,0.362c-1.05,0-2.85,0.3-2.85,0.3c-1.144-0.088-3.217-0.227-5.221-0.297   c0.01-0.692-0.029-1.369-0.029-1.953c-0.15-0.45-0.15-1.05-0.15-1.05c0.45-0.45,0.3-1.5,0-1.95c-0.3-0.45-1.5-0.6-1.5-0.6   c-0.13-0.13-0.361-0.209-0.424-0.211C42.758,61.146,42.054,61,41.507,61c-0.001,0-0.002,0-0.003,0c-0.421,0-0.861,0-1.347,0   c-0.3,0-1.2,0-1.2,0c-0.6,0-1.35,0-1.95,0c-0.3,0-0.75,0-0.75,0c1.35-2,3.9-4.363,5.55-6.463c1.8-2.4,3.6-4.881,5.4-7.131   c0.237-0.395,0.597-1.075,0.908-1.597c0.225-0.257,0.45-0.531,0.676-0.789c1.322,1.299,2.647,2.039,4.116,3.214   c2.55,2.1,4.8,4.195,7.35,6.295c0.761,0.508,1.517,1.223,2.188,1.888c0.076,0.117,0.151,0.235,0.212,0.358   c0.315,0.525,0.845,1.337,1.086,1.833C63.531,58.652,63.319,58.694,63.107,58.725z"/></g><g display="none"><path display="inline" stroke="#000000" d="M71.709,43.26c0-1.034-0.292-1.922-0.731-2.807c-0.225-0.755-0.48-1.494-0.769-2.213   c0-0.134,0-0.23,0-0.23c0-0.3-0.15-0.75-0.3-0.9c-0.078-0.078-0.194-0.156-0.29-0.233c-0.076-0.163-0.156-0.324-0.234-0.486   c-0.41-1.444-0.728-3.109-1.576-4.381c-0.15-0.45-0.6-0.75-1.05-1.05c-0.121,0-0.314,0.025-0.503,0.054   c-1.181-1.795-2.458-3.41-3.878-4.845c-0.088-0.156-0.174-0.316-0.269-0.459c-0.235-0.235-0.473-0.465-0.781-0.556   c-0.629-0.567-1.296-1.096-1.987-1.6c-0.565-0.786-1.168-1.569-1.882-2.194c-1.95-1.65-4.05-1.5-6.45-1.95   c-1.2-0.3-2.1-0.75-3.3-0.9c-0.75-0.15-1.35-0.6-2.1-0.75c-0.983-0.197-1.958-0.03-2.921-0.384c0.095-0.023,0.219,0.11,0.3,0.061   c-2.262-0.842-2.926-0.367-4.903,0.404c-1.98,0.772-4.309,0.317-6.123,1.634c0.603,2.426,5.131,3.289,6.965,4.478   c3.107,2.013,6.221,4.162,8.783,6.858c3.9,4.05,4.5,9.9,4.5,15.3c0,0.75,0.3,1.5,0.3,2.1c-0.15,1.05-0.3,1.95-0.3,3   c-0.15,0.9,0,1.95,0,2.85c0,1.65,0,4.65-0.75,6.3c-1.459,3.648-3.492,6.869-6.226,9.942c-0.606,0.531-1.161,1.087-1.693,1.694   c-0.165,0.16-0.328,0.322-0.492,0.481c-0.027,0.016-0.044,0.046-0.064,0.063c-0.773,0.748-1.529,1.504-2.267,2.282   c-0.653,0.479-1.348,0.868-2.062,1.197c-3.249,1.496-7.667-0.042-10.663,2.133c0.294,2.064,3.465,2.935,5.108,3.386   c2.113,0.581,5.275,1.473,7.409,1.473c2.85,0,6.15-0.45,8.7-1.2c1.2-0.3,2.25-0.9,3.3-1.2c0.068-0.014,0.136-0.013,0.204-0.024   c0.09-0.001,0.179-0.012,0.269-0.031c0.593-0.074,1.185-0.095,1.777-0.095c1.2-0.3,2.25-1.05,3.45-1.5c0.75-0.45,2.25-1.05,3-1.65   c1.05-0.9,1.5-2.25,2.4-3.15c0.267-0.32,0.515-0.65,0.773-0.975c0.508-0.296,0.71-0.668,0.949-1.204   c0.465-0.426,0.863-1.042,1.142-1.624c1.059-1.562,2.02-3.182,2.836-4.897c0.6-1.2,0.75-2.7,1.2-4.05   c0.185-0.712,0.333-1.412,0.466-2.109c0.732-0.307,0.735-1.197,0.884-1.941C72.009,52.56,72.159,47.91,71.709,43.26z M44.259,21.81   v0.15c-0.154-0.154-0.425-0.346-0.654-0.498c0.177,0.016,0.354,0.026,0.531,0.044C44.207,21.661,44.259,21.81,44.259,21.81z    M50.413,29.612c0.752,0.45,2.396,1.198,2.396,1.198v0.15c0.15,0.45,0.15,1.5,0.15,1.65c0,0.15,0,0.75,0.15,0.75   c0,0.2,0.02,0.404,0.025,0.604C52.406,32.388,51.49,30.942,50.413,29.612z"/></g><text x="0" y="115" fill="#000000" font-size="5px" font-weight="bold" font-family="'Helvetica Neue', Helvetica, Arial-Unicode, Arial, Sans-serif">Created by Fabio Nucatolo</text><text x="0" y="120" fill="#000000" font-size="5px" font-weight="bold" font-family="'Helvetica Neue', Helvetica, Arial-Unicode, Arial, Sans-serif">from the Noun Project</text></svg>