<svg xmlns="http://www.w3.org/2000/svg" xmlns:xlink="http://www.w3.org/1999/xlink" xmlns:xodm="http://www.corel.com/coreldraw/odm/2003" xml:space="preserve" version="1.1" style="shape-rendering:geometricPrecision;text-rendering:geometricPrecision;image-rendering:optimizeQuality;" viewBox="0 0 60000 75000" x="0px" y="0px" fill-rule="evenodd" clip-rule="evenodd"><defs><style type="text/css">
   
    .fil0 {fill:black;fill-rule:nonzero}
   
  </style></defs><g><path class="fil0" d="M12135.44 59596.98c14765.07,-10663.84 22527.76,-21733.19 28044.25,-31544.08 -117.59,-24.13 -235.88,-48.34 -353.92,-72.53 -6192.5,9662.55 -14756.57,20748.44 -30811.93,31616.61l-801.42 0c16266.73,-10885.64 24922.22,-22010.13 31156.49,-31710.11l-315.67 -64.42c-6986.54,9494.96 -16521.09,20606.49 -34125.24,31774.53l-894.31 0c17838.06,-11189.45 27481.67,-22341.09 34518.47,-31876.49 -90.03,-18.28 -179.98,-36.58 -270.22,-54.86 -7867.81,9256.42 -18463.13,20350.66 -37626.19,31931.35l-173.43 0 0 -486.94c18898.06,-11431.52 29429.08,-22386.28 37244.38,-31556.55 -72.55,-14.62 -144.79,-29.24 -217.47,-43.85 -8223.16,8307.58 -18955.43,18421.15 -37026.91,29573.43l0 -629.64c17674.64,-10939.64 28281.02,-20871.92 36409.94,-29067.29l-155.09 -30.89c-8545.59,7333.3 -19368.72,16428.24 -36254.85,27100.02l0 -665.11c16462.86,-10428.06 27130.79,-19344.56 35560.55,-26572.39l-78.28 -15.36c-1292.44,928.51 -2628.34,1893.44 -4016.85,2896.41 -8125.84,5869.56 -18039.93,13030.69 -31465.42,21720.51l0 -701.19c13264.04,-8596.2 23090.61,-15693.97 31154.8,-21518.99 1175.98,-849.45 2314.51,-1671.82 3420.87,-2467.91 -735.51,434.19 -1482.42,878.76 -2242.39,1334.91 -8676.1,5207.56 -19003.06,11875.83 -32333.28,20709.09l0 -739.27c13191.6,-8738.76 23433.87,-15349.39 32049.12,-20520.43 310.86,-186.58 619.58,-371.27 926.26,-554.13 -9232.62,4402.93 -19981.5,10356.91 -32975.38,19161.01l0 -778.41c12216.54,-8256.9 22446.83,-13994.92 31299.16,-18298.26 -9262.86,3470.8 -19726.55,8413.54 -31299.16,16411.73l0 -815.91c10845.74,-7454.34 20713.91,-12238.38 29531,-15652.94 -9211.57,2600.65 -19298.09,6611.08 -29531,13794.2l0 -853.44c9557.84,-6643.76 18974.08,-10550.45 27666.9,-13141.99 -9069.67,1799.43 -18687.46,4956.07 -27666.9,11312.75l0 -893.1c8360.93,-5827.01 17240.42,-8933.34 25712.39,-10774.46 -8828.71,1074.12 -17891.32,3456.05 -25712.39,8975.95l0 -927.15c7262.94,-5007.62 15530.66,-7391.49 23681.6,-8562.08 -8484.59,431.85 -16914.91,2117.81 -23681.6,6793.42l0 -951.81c6273.08,-4193.14 13868.31,-5930.85 21598.64,-6516.47 -8036.45,-120.82 -15772.21,948.11 -21598.64,4782.03l0 -972.41c5386.04,-3383.76 12250.27,-4551.16 19451.85,-4643.81 -7474.76,-574.55 -14455.27,-41.86 -19451.85,2956.29l0 -983.98c7463.52,-4209.86 18838.55,-3368.16 29824.71,-1498.83 460.26,42.53 919.79,87 1378.12,133.52 459.02,8.78 916.88,19.56 1373.06,32.48 437.89,-25.95 874.37,-50.02 1308.83,-71.95 428.39,-61.72 855.04,-121.5 1279.32,-179.02 410.11,-96.79 818.27,-191.61 1223.85,-284.11 402.7,-135.43 803.17,-268.74 1200.76,-399.46 383.59,-171.13 764.82,-340.01 1143.11,-506.15 369.73,-209.69 736.67,-416.63 1100.91,-620.82 354.01,-248.2 705.19,-493.37 1053.69,-735.48 340.08,-289.04 677.31,-574.67 1011.98,-856.85 320.79,-325.94 638.89,-648.1 954.67,-966.44 308.11,-370.39 613.65,-736.42 917.14,-1097.99 283.85,-400.47 565.55,-796.3 845.71,-1187.3 268.82,-442.51 535.89,-879.72 801.92,-1311.42 3828.23,-7316.69 7373.93,-13250.67 13574.8,-16786.95l0 487.67c-4593.07,2679.96 -7710.44,6735.86 -10608.48,11718.82 2997.43,-4326.62 6199.31,-7855.44 10608.48,-10269.43l0 515.28c-4640.79,2597.38 -7932.9,6485.05 -11102.56,11261.41 3266.81,-4130.03 6643.55,-7499.35 11102.56,-9837.61l0 542.44c-4684.15,2507.75 -8170.64,6201.13 -11635.99,10740.56 3561.96,-3902.74 7133.19,-7086.86 11635.99,-9342.62l0 570.84c-4720.55,2410 -8421.92,5880.56 -12207.08,10150.13 3882.91,-3641.33 7669.27,-6610.73 12207.08,-8776.41l0 595.33c-4748.23,2303.46 -8685.67,5519.24 -12813.62,9482.84 4229.8,-3343.73 8252.91,-6066.47 12813.62,-8133.06l0 622.65c-4761.64,2186.48 -8952.36,5109.42 -13438.17,8722.91 4595.6,-3002.81 8873.22,-5441.03 13438.17,-7397.76l0 649.33c-4759.15,2059.16 -9219.03,4652.19 -14075,7873.21 4974.94,-2617.37 9523.58,-4733.16 14075,-6570.78l0 672.66c-4733.09,1919.73 -9472.12,4146.18 -14703.7,6932.79 4113.45,-1679.37 7914.67,-3104.15 11500.57,-4447.97 1086.54,-407.18 2153.35,-806.98 3203.13,-1204.22l0 698.21c-984.81,372.21 -1984.71,746.93 -3001.89,1128.12 -3814.88,1429.63 -7873.92,2951.1 -12294.53,4774.45 1745.03,-522.16 3432.2,-1011.34 5060.3,-1483.36 3720.67,-1078.68 7133.33,-2068.08 10218.48,-3155.12 5.87,-2.06 11.75,-3.89 17.64,-5.57l0 723.23c-3058.73,1069.74 -6416.54,2043.26 -10071.12,3102.78 -1856.83,538.33 -3790.79,1099.14 -5799.89,1705.68 1009.63,-200.29 1999.95,-393.14 2969.08,-581.82 4867.7,-947.71 9204.82,-1792.13 12832.39,-2968.58 23.13,-7.42 46.42,-11.98 69.54,-13.92l0 740.15c-3623.31,1162.84 -7943,2003.95 -12784.75,2946.6 -1173.98,228.57 -2379.21,463.34 -3612.52,710.1 659.6,-69.3 1311.18,-136.69 1953.52,-203.1 5611.92,-580.19 10538.01,-1089.51 14322.93,-2202.88 40.51,-11.88 81.3,-15.47 120.82,-11.74l0 747.18c-3835.66,1118.49 -8765.94,1628.34 -14378.75,2208.63 -811.39,83.89 -1637.49,169.35 -2476.41,258.34 442.15,-8.21 880.83,-16.05 1315.34,-23.78 6180.5,-110.08 11557.97,-205.89 15369.75,-1203.29 57.92,-15.1 115.96,-14.12 170.07,0.28l0 750.87 -1.31 0.36c-3887.22,1017.14 -9302.87,1113.62 -15527.25,1224.49 -562.25,10.02 -1131.49,20.21 -1706.64,31.19 273.32,16.88 545.77,33.73 816.23,50.49 6666.82,413.23 12434.8,770.78 16201.85,-82.58 75.63,-16.95 150.68,-7.88 217.12,21.56l0 742.51c-20.8,9.16 -42.66,16.44 -65.46,21.55 -3862.93,875.07 -9675.73,514.75 -16394.35,98.31 -356.43,-22.09 -715.67,-44.32 -1077.26,-66.55l360.15 49.09c7102.81,968.55 13225.17,1803.4 16913.59,1108.42 94.44,-17.77 186.85,3.05 263.33,51.9l0 716.49c-39.11,24.97 -82.98,42.87 -130.41,51.8 -3794.83,715.02 -9974.21,-127.61 -17143.17,-1105.17l-468.54 -63.88c7464.4,1535.79 13877.13,2848.24 17436.51,2325.2 113.95,-16.5 223.1,20.6 305.61,93.26l0 665.4c-55.26,48.78 -123.35,82.18 -199.35,93.18 -3709.76,545.14 -10232.53,-796.95 -17818.23,-2357.74 -284.65,-58.57 -571.31,-117.52 -858.92,-176.62 -5480.44,9776.69 -13163.2,20809.96 -27741.19,31458.05l-721.77 0z"/></g><text x="0" y="60015" fill="#000000" font-size="5px" font-weight="bold" font-family="'Helvetica Neue', Helvetica, Arial-Unicode, Arial, Sans-serif">Created by Olena Panasovska</text><text x="0" y="60020" fill="#000000" font-size="5px" font-weight="bold" font-family="'Helvetica Neue', Helvetica, Arial-Unicode, Arial, Sans-serif">from the Noun Project</text></svg>